<svg width="47" height="63" viewBox="0 0 47 63" fill="none" xmlns="http://www.w3.org/2000/svg">
<path fill-rule="evenodd" clip-rule="evenodd" d="M0.57483 34.0429C-0.41517 33.5729 0.574831 32.3669 1.04483 31.9999C2.03483 31.2669 3.34083 31.0049 4.54083 31.0999L4.43683 33.2479C4.38483 34.3479 4.12383 33.8779 3.34083 34.4529C2.50583 35.0289 0.680829 35.8669 0.575829 34.0329L0.57483 34.0429ZM37.5678 56.8809C38.9778 57.7809 41.5848 60.4429 39.4458 61.7509C37.4108 63.6369 36.2628 59.6559 34.4358 59.1309C35.2188 58.0829 36.2098 57.0879 37.5658 56.8789L37.5678 56.8809ZM12.1078 59.9189C10.4378 60.1809 9.49783 61.6989 8.09083 62.4859C6.78683 63.2719 6.26483 62.2239 6.16083 62.0159C5.95083 61.9109 5.95083 62.1209 5.63883 61.8159C4.43883 59.8779 6.89083 58.4639 8.19583 57.5209C10.0218 57.1009 11.1698 58.6729 12.1088 59.9209L12.1078 59.9189ZM45.4478 33.7809C45.3438 35.6139 43.5178 34.7759 42.6828 34.2009C41.8998 33.6249 41.6398 34.0959 41.5868 32.9959L41.4828 30.8479C42.6828 30.7429 43.9868 31.0049 44.9788 31.7479C45.5008 32.1679 46.4388 33.3179 45.4488 33.7909L45.4478 33.7809Z" fill="#F6D2A2"/>
<path d="M1.56783 35.351C1.20283 35.351 0.524831 35.194 0.419831 34.146C0.106831 33.946 0.00282714 33.676 0.00282714 33.516C-0.0491729 32.886 0.628829 32.154 0.992829 31.892C1.82783 31.262 2.92283 30.949 4.07083 30.949H4.74883V31.106C4.80083 31.682 4.74883 32.258 4.69683 32.782C4.69683 32.939 4.69683 33.096 4.64483 33.252C4.59283 34.038 4.43483 34.152 4.07083 34.3C3.91383 34.352 3.75783 34.405 3.49683 34.614C3.23683 34.771 2.34883 35.347 1.56683 35.347L1.56783 35.351ZM4.07183 31.265C2.97583 31.265 1.98483 31.579 1.20183 32.165C0.836828 32.427 0.314829 33.065 0.366829 33.465C0.366829 33.622 0.470829 33.779 0.679829 33.885L0.783829 33.937V34.042C0.835829 34.88 1.25383 34.985 1.56683 34.985C2.08883 34.985 2.81883 34.618 3.28883 34.305C3.60183 34.105 3.81083 34.043 3.96683 33.991C4.22683 33.886 4.27983 33.886 4.33183 33.258C4.33183 33.101 4.33183 32.944 4.38383 32.788C4.43583 32.318 4.43583 31.793 4.43583 31.321C4.27883 31.269 4.17583 31.269 4.07083 31.269L4.07183 31.265Z" fill="black"/>
<path fill-rule="evenodd" clip-rule="evenodd" d="M0.574829 34.0428C0.834829 33.9378 1.14883 33.8858 1.30483 33.6228L0.574829 34.0428Z" fill="#C6B198"/>
<path d="M0.574832 34.2008C0.522832 34.2008 0.41783 34.1488 0.41783 34.0958C0.36583 33.9908 0.41783 33.8958 0.52183 33.8958C0.57383 33.8958 0.62583 33.8438 0.62583 33.8438C0.83583 33.7388 1.04283 33.6868 1.14783 33.5298C1.19983 33.4778 1.30483 33.4248 1.40783 33.4778C1.45983 33.5298 1.51183 33.6348 1.45983 33.7398C1.28763 33.952 1.04867 34.0997 0.781832 34.1588L0.677832 34.2108H0.573832L0.574832 34.2008Z" fill="black"/>
<path fill-rule="evenodd" clip-rule="evenodd" d="M4.85383 11.8858C-2.24217 9.88581 3.02782 0.833807 8.71382 4.55281L4.85383 11.8858Z" fill="#6AD7E5"/>
<path d="M4.95783 12.0949L4.80083 12.0429C1.14883 10.9949 1.20083 8.37588 1.30483 7.59088C1.56483 5.59088 3.44483 3.50488 5.94783 3.50488C6.93783 3.50488 7.87783 3.81888 8.81783 4.44788L8.97483 4.55288L4.95783 12.0949ZM5.94783 3.87088C3.59983 3.87088 1.87783 5.80888 1.61783 7.64088C1.35783 9.52688 2.50483 10.9929 4.74783 11.6739L8.45183 4.60388C7.66883 4.13388 6.83483 3.87088 5.94783 3.87088Z" fill="black"/>
<path fill-rule="evenodd" clip-rule="evenodd" d="M36.3148 3.88081C41.8978 -0.0491869 47.0108 8.85682 40.4888 11.1108L36.3148 3.88081Z" fill="#6AD7E5"/>
<path d="M40.4358 11.311L36.1058 3.81096L36.2628 3.70596C37.2628 3.02596 38.2458 2.65796 39.2368 2.65796C41.6368 2.65796 43.3588 4.65796 43.7238 6.58796C43.8808 7.37396 44.0368 10.045 40.5938 11.188L40.4368 11.293L40.4358 11.311ZM36.5758 3.97796L40.5928 10.945C42.6278 10.212 43.6708 8.63996 43.3578 6.74496C43.0448 4.96496 41.4278 3.13096 39.2358 3.13096C38.3488 3.07896 37.4618 3.33096 36.5758 3.96896V3.97796ZM38.3578 62.433C37.5228 62.433 36.7928 61.595 36.1578 60.809C35.5838 60.179 35.0098 59.509 34.3838 59.289L34.1238 59.237L34.2808 59.037C34.9068 58.137 35.9508 56.994 37.5158 56.732H37.5678L37.6198 56.784C38.5068 57.36 40.4368 58.984 40.3848 60.504C40.3848 61.08 40.0718 61.552 39.4978 61.918C39.1328 62.285 38.7678 62.442 38.3498 62.442L38.3578 62.433ZM34.7058 59.028C35.3318 59.29 35.8538 59.971 36.3758 60.548C37.0018 61.334 37.6278 62.015 38.3058 62.015C38.6188 62.015 38.9318 61.858 39.2458 61.545H39.2978C39.7678 61.231 40.0278 60.865 40.0278 60.393C40.0278 59.188 38.5148 57.669 37.4708 56.988C36.5308 57.25 35.5928 57.888 34.7058 59.031V59.028ZM39.4538 61.908C39.4018 61.908 39.3498 61.856 39.2968 61.803C39.1852 61.5866 39.098 61.3586 39.0368 61.123C38.8798 60.703 38.7238 60.285 38.4108 59.971C38.3588 59.919 38.3588 59.814 38.4108 59.709C38.4628 59.657 38.5678 59.657 38.6708 59.709C39.0358 60.076 39.2448 60.547 39.4008 61.009L39.6608 61.639C39.7128 61.744 39.6608 61.839 39.6088 61.901H39.4518L39.4538 61.908Z" fill="black"/>
<path d="M7.20082 62.9049C6.52282 62.9049 6.15782 62.3289 6.05282 62.1189H6.00082C5.84382 62.1189 5.74082 62.0669 5.53082 61.8569V61.8049C4.38282 59.9719 6.36582 58.5569 7.67082 57.6049L8.14082 57.2909H8.24482C8.44482 57.2389 8.60982 57.2389 8.81882 57.2389C10.3838 57.2389 11.3758 58.6009 12.2188 59.7009L12.4788 60.0679L12.1658 60.1199C11.1658 60.2769 10.4438 60.9059 9.71382 61.5339C9.24382 61.9539 8.77382 62.3199 8.25382 62.6339C7.83682 62.7909 7.52382 62.8959 7.21082 62.8959L7.20082 62.9049ZM6.05282 61.8049C6.10482 61.8049 6.15682 61.8049 6.25282 61.8569H6.30482L6.35682 61.9089C6.46082 62.0659 6.72183 62.5389 7.24383 62.5389C7.50383 62.5389 7.76582 62.4339 8.02682 62.2769C8.54882 62.0149 9.02682 61.5969 9.42682 61.2289C10.1048 60.6529 10.8268 60.0239 11.7748 59.7619C10.9918 58.7139 10.0528 57.5619 8.74882 57.5619C8.59182 57.5619 8.43582 57.5619 8.27882 57.6139L7.86182 57.9279C6.50482 58.8709 4.83583 60.0759 5.82683 61.6479C5.87883 61.7529 5.93082 61.8049 6.02682 61.8049H6.05282ZM6.15682 62.1719C6.05282 62.1719 5.95682 62.0669 5.99982 61.9719C6.05182 61.4479 6.31282 61.0719 6.57382 60.6719C6.71476 60.4741 6.83696 60.2635 6.93882 60.0429C6.99082 59.9379 7.09582 59.9379 7.13882 59.9379C7.24282 59.9899 7.24283 60.0949 7.24283 60.1379C7.13883 60.3999 6.98282 60.6079 6.82582 60.8179C6.56582 61.1849 6.35582 61.4979 6.30382 61.9179C6.30382 62.1179 6.25183 62.1799 6.14683 62.1799L6.15682 62.1719ZM5.16682 9.42395C4.22682 8.95395 3.54982 8.27194 4.12382 7.17194C4.64582 6.17694 5.63682 6.27194 6.57582 6.75194L5.17582 9.42194L5.16682 9.42395ZM39.0268 8.48094C39.9668 8.01094 40.6438 7.32895 40.0698 6.22895C39.5478 5.23395 38.5568 5.32895 37.6178 5.80895L39.0178 8.47895L39.0268 8.48094ZM44.5048 35.0809C43.7218 35.0809 42.8348 34.5049 42.5748 34.3479C42.3148 34.1909 42.1578 34.0859 42.0008 34.0339C41.5838 33.8769 41.4788 33.7719 41.4268 32.9859C41.4268 32.8289 41.4268 32.6719 41.3748 32.5159C41.3228 31.9919 41.2708 31.4159 41.3228 30.8399V30.6799H42.0008C43.1488 30.6799 44.2438 30.9939 45.0788 31.6229C45.4438 31.8849 46.1218 32.6179 46.0788 33.2469C46.0788 33.4469 45.9748 33.7169 45.6618 33.8769C45.5578 34.9249 44.8788 35.0819 44.5138 35.0819L44.5048 35.0809ZM41.6348 31.0479L41.6868 32.5149C41.6868 32.6719 41.6868 32.8289 41.7388 32.9849C41.7908 33.6149 41.8428 33.6149 42.1038 33.7179C42.2608 33.7699 42.4688 33.8749 42.7818 34.0319C43.2518 34.3459 43.9818 34.7119 44.5038 34.7119C44.8168 34.7119 45.2338 34.6069 45.2868 33.7689V33.6639L45.3908 33.6119C45.5908 33.5069 45.7038 33.4119 45.7038 33.1919C45.7558 32.7719 45.2338 32.1439 44.8688 31.8919C44.0858 31.3159 43.0428 30.9919 41.9988 30.9919C41.8948 31.0439 41.7988 31.0439 41.6338 31.0439L41.6348 31.0479Z" fill="black"/>
<path fill-rule="evenodd" clip-rule="evenodd" d="M45.4448 33.7808C45.1848 33.6758 44.8708 33.6238 44.7148 33.3608L45.4448 33.7808Z" fill="#C6B198"/>
<path d="M45.4448 33.9808H45.3928L45.2888 33.9288C45.0288 33.8238 44.7668 33.7718 44.6108 33.5088C44.5588 33.4568 44.5588 33.3088 44.6628 33.2468C44.7148 33.1948 44.8728 33.1948 44.9228 33.2988C45.0268 33.4558 45.2358 33.4988 45.4448 33.6128C45.4968 33.6128 45.5488 33.6648 45.5488 33.6648C45.6528 33.7168 45.7058 33.8218 45.6528 33.8648C45.5998 33.9078 45.4958 33.9698 45.4428 33.9698L45.4448 33.9808Z" fill="black"/>
<path fill-rule="evenodd" clip-rule="evenodd" d="M22.3318 0.150902C29.4278 0.150902 36.0538 1.1459 39.5488 8.0079C42.6788 15.6559 41.5318 23.9319 42.0528 32.0509C42.4698 39.0179 43.3568 47.0309 40.1748 53.4749C36.7848 60.2319 28.3318 61.9609 21.3918 61.6989C15.9138 61.4989 9.33983 59.6989 6.20883 54.6789C2.60883 48.8119 4.27883 40.0649 4.53883 33.5169C4.85183 25.7649 2.45183 17.9599 5.00883 10.4169C7.56583 2.5169 14.6608 0.716902 22.3308 0.149902" fill="#6AD7E5"/>
<path d="M22.5928 61.9109H21.2878C19.1478 61.8589 15.9138 61.4909 12.7308 60.1809C9.65283 58.9239 7.40882 57.1429 5.94782 54.7859C3.02582 50.0189 3.54782 43.4719 4.01782 37.6559L4.27783 33.5179C4.38183 30.7939 4.17383 27.9659 3.91283 25.2939C3.49583 20.3699 3.07782 15.2889 4.69582 10.3639C5.94782 6.69687 8.19183 4.07787 11.5828 2.40187C14.2428 1.10187 17.5308 0.358868 22.2258 0.0018676C29.2158 -0.0501324 36.1558 0.944868 39.6518 7.90187C41.9478 13.5069 41.9478 19.5319 41.9998 25.3449C41.9998 27.5449 41.9998 29.7969 42.1568 31.9969C42.2088 32.6769 42.2608 33.3589 42.2608 34.0399C42.6778 40.4399 43.1478 47.6599 40.2258 53.5259C38.7658 56.5119 36.2088 58.7119 32.7128 60.1259C29.8958 61.2779 26.3478 61.9059 22.5908 61.9059L22.5928 61.9109ZM22.3328 0.310868C14.9758 0.886868 7.77582 2.51087 5.11582 10.4729C3.49882 15.3429 3.91583 20.3729 4.33283 25.2429C4.54283 27.9669 4.80282 30.7429 4.69782 33.5189C4.64582 34.8189 4.54083 36.1889 4.43783 37.6569C3.96783 43.4189 3.44783 49.9139 6.31583 54.5769C7.51583 56.5149 11.3758 61.1249 21.3418 61.4909H22.6458C34.1758 61.4909 38.4558 56.3579 40.0198 53.3209C42.8898 47.5589 42.4198 40.3209 42.0548 33.9909C42.0028 33.3109 41.9508 32.6289 41.9508 31.9479C41.8468 29.7479 41.7938 27.4959 41.7938 25.2959C41.7418 19.5339 41.7418 13.5099 39.4978 7.95787C37.9328 4.85787 35.5848 2.77187 32.3498 1.55787C29.0098 0.457867 25.2538 0.300868 22.3328 0.300868V0.310868Z" fill="black"/>
<path fill-rule="evenodd" clip-rule="evenodd" d="M23.5838 9.6859C23.1668 2.8239 33.6538 0.9379 35.2188 7.6429C36.9408 15.1429 24.8358 17.1229 23.5838 9.6859ZM9.13184 10.8809C7.51484 2.9189 20.2448 1.4509 20.7148 9.2049C21.0798 15.6999 10.8018 17.3249 9.13184 10.8809Z" fill="white"/>
<path d="M29.3228 14.5569C26.9748 14.5569 24.0008 13.2999 23.3748 9.73695C23.2708 8.06095 23.7918 6.54195 24.8878 5.38895C26.0878 4.08895 27.9138 3.34595 29.7918 3.34595C31.9918 3.34595 34.5918 4.49795 35.3218 7.69395C35.7388 9.47395 35.4258 11.0459 34.4348 12.2939C33.3388 13.6559 31.4088 14.5459 29.3218 14.5459L29.3228 14.5569ZM23.7398 9.68695C23.9998 11.1539 24.6798 12.3069 25.7748 13.1439C26.7148 13.8769 28.0178 14.2439 29.3228 14.2439C31.2528 14.2439 33.1228 13.4059 34.1748 12.0959C35.1148 10.9439 35.3748 9.42595 35.0098 7.74795C34.3318 4.76195 31.8798 3.71495 29.7928 3.71495C28.0188 3.71495 26.2968 4.44795 25.1498 5.65295C24.1498 6.70095 23.6368 8.11495 23.7498 9.68595L23.7398 9.68695ZM28.2798 9.37295C28.2798 10.4209 27.4968 11.2589 26.5578 11.2589C25.6188 11.2589 24.8358 10.4209 24.8358 9.37295C24.8358 8.32495 25.6188 7.48695 26.5578 7.48695C27.4968 7.48695 28.2798 8.32495 28.2798 9.37295ZM14.6098 15.1859C12.3668 15.1859 9.75782 14.0859 8.92282 10.9429C8.55782 9.10995 8.92283 7.44295 9.96583 6.17595C11.1138 4.76195 12.9918 3.92395 15.0258 3.92395C17.7388 3.92395 20.6088 5.54795 20.8258 9.22395C20.9298 10.7439 20.4608 12.1039 19.4258 13.2039C18.3298 14.4089 16.5038 15.2039 14.6258 15.2039L14.6098 15.1859ZM15.0278 4.28095C13.0978 4.28095 11.3238 5.06695 10.2278 6.37595C9.22782 7.58095 8.92383 9.09995 9.28783 10.8279C10.0178 13.7609 12.5228 14.8079 14.6098 14.8079C16.3838 14.8079 18.1058 14.1279 19.2098 12.9219C19.6776 12.4292 20.0356 11.8429 20.2604 11.2017C20.4852 10.5605 20.5715 9.87894 20.5138 9.20195C20.4098 6.94995 18.8968 4.27795 15.0358 4.27795L15.0278 4.28095ZM13.7238 9.83295C13.7238 10.8809 12.9408 11.7189 12.0018 11.7189C11.0628 11.7189 10.2798 10.8809 10.2798 9.83295C10.2798 8.78495 11.0628 7.94695 12.0018 7.94695C12.9408 7.94695 13.7238 8.78495 13.7238 9.83295Z" fill="black"/>
<path fill-rule="evenodd" clip-rule="evenodd" d="M25.0448 18.5809C25.0448 19.5239 25.2548 20.6239 25.0968 21.6809C24.8368 22.1509 24.3668 22.2049 23.9488 22.3609C23.3748 22.2559 22.9058 21.8909 22.6448 21.3659C22.4878 20.2139 22.6968 19.0609 22.7488 17.9089L25.0448 18.5889V18.5809Z" fill="white"/>
<path d="M23.9478 22.5808C23.2698 22.4758 22.7478 22.0568 22.4878 21.4808C22.3838 20.6428 22.4358 19.8568 22.4878 19.0808C22.5398 18.7138 22.5398 18.3478 22.5398 17.9808V17.7808L25.1998 18.6188V18.7238C25.1998 19.0378 25.2518 19.3538 25.2518 19.7188C25.3038 20.3988 25.3558 21.1328 25.2518 21.8138V21.8658C25.0418 22.2858 24.6778 22.3898 24.3118 22.5458C24.2078 22.4938 24.1018 22.5458 23.9468 22.5978L23.9478 22.5808ZM22.7998 21.3238C23.0098 21.7938 23.4258 22.1098 23.8958 22.2238C23.9998 22.1718 24.1058 22.1718 24.1558 22.1188C24.4688 22.0138 24.7298 21.9188 24.8858 21.6488C24.9898 21.0188 24.9378 20.3488 24.8858 19.6488C24.8858 19.3348 24.8338 19.0188 24.8338 18.7488L22.8508 18.1188C22.8508 18.4328 22.7988 18.7488 22.7988 19.0188C22.7468 19.8568 22.6948 20.5888 22.7988 21.3238H22.7998Z" fill="black"/>
<path fill-rule="evenodd" clip-rule="evenodd" d="M13.1578 10.2608C13.1578 10.5228 12.9578 10.7308 12.7408 10.7308C12.5238 10.7308 12.3238 10.5308 12.3238 10.2608C12.3238 9.99079 12.5238 9.79079 12.7408 9.79079C13.0008 9.79079 13.1578 9.99079 13.1578 10.2608ZM27.7578 9.78079C27.7578 10.0428 27.6008 10.2508 27.3408 10.2508C27.1408 10.2508 26.9238 10.0508 26.9238 9.78079C26.9238 9.51079 27.0808 9.31079 27.3408 9.31079C27.5408 9.31079 27.7578 9.51079 27.7578 9.78079ZM20.0358 18.4858C19.2528 20.3188 20.4528 24.0378 22.5398 21.3158C22.3828 20.1638 22.5918 19.0108 22.6438 17.8588L20.0438 18.4888L20.0358 18.4858Z" fill="white"/>
<path d="M21.1318 22.4668C20.7668 22.4668 20.4018 22.2667 20.1418 21.8368C19.5678 20.9987 19.4638 19.4368 19.8818 18.4318L19.9338 18.3267L22.8038 17.5938V17.7938L22.7518 18.9458C22.6998 19.7318 22.6478 20.4657 22.7518 21.2507V21.3027L22.6998 21.3547C22.1778 22.0877 21.6568 22.4548 21.1348 22.4548L21.1318 22.4668ZM20.1918 18.6427C19.8788 19.5427 19.9818 20.9477 20.4518 21.6287C20.6618 21.9427 20.8688 22.0988 21.1298 22.0988C21.4948 22.0988 21.9128 21.7847 22.3298 21.2607C22.2258 20.4747 22.2778 19.6907 22.3818 18.9557L22.4338 18.0557L20.1908 18.6317L20.1918 18.6427Z" fill="black"/>
<path fill-rule="evenodd" clip-rule="evenodd" d="M20.2978 14.9239C18.8878 15.0289 17.7408 16.7569 18.4718 18.0669C19.4618 19.8469 21.6018 17.9099 22.9588 18.0669C24.5238 18.1189 25.7758 19.7429 27.0288 18.3809C28.4388 16.8609 26.4028 15.3949 24.8888 14.7139L20.2988 14.9139L20.2978 14.9239Z" fill="#F6D2A2"/>
<path d="M25.9318 19.1139C25.4618 19.1139 24.9918 18.9139 24.5218 18.6939C24.0518 18.4739 23.5318 18.2739 22.9568 18.2739H22.7998C22.3828 18.2739 21.9128 18.4309 21.3898 18.6409C20.8158 18.8409 20.2418 19.0079 19.7198 19.0079C19.0938 19.0079 18.6238 18.7459 18.3098 18.1699C17.9448 17.5399 17.9968 16.8079 18.3618 16.1269C18.7788 15.3409 19.5098 14.8699 20.2918 14.7649L24.9878 14.5649C26.1358 15.0349 27.4398 15.9269 27.7008 16.9649C27.8048 17.4889 27.6488 18.0129 27.2308 18.4849C26.8128 18.9569 26.3958 19.1149 25.9268 19.1149L25.9318 19.1139ZM23.0098 17.9619C23.5838 17.9619 24.1578 18.2239 24.6798 18.4319C25.1498 18.6319 25.5668 18.7989 25.9838 18.7989C26.3488 18.7989 26.6618 18.6419 26.9738 18.3289C27.1345 18.1759 27.2561 17.9867 27.3287 17.7771C27.4012 17.5674 27.4225 17.3435 27.3908 17.1239C27.1808 16.2239 25.9308 15.3939 24.9388 14.9759L20.3988 15.1759C19.7208 15.2279 19.0948 15.6999 18.7288 16.3279C18.4158 16.9039 18.4158 17.5329 18.6768 18.0579C18.9368 18.5279 19.2508 18.7379 19.7728 18.7379C20.2428 18.7379 20.7628 18.5379 21.2858 18.3709C21.8598 18.1709 22.3288 18.0039 22.8508 18.0039C22.8508 17.8989 22.9028 17.8989 23.0078 17.9519L23.0098 17.9619Z" fill="#231F20"/>
<path d="M20.1408 14.8809C20.0368 12.4189 24.7308 12.1049 25.2538 14.1479C25.8278 16.2429 20.3498 16.7149 20.1408 14.8809Z" fill="black"/>
</svg>
