<svg width="110" height="39" viewBox="0 0 110 39" fill="none" xmlns="http://www.w3.org/2000/svg">
<path d="M47.075 32.637C47.075 32.637 51.925 32.217 51.925 25.903C51.925 19.589 46.049 19 46.049 19H35.465V38.923H40.785V34.117L45.385 38.923H53.255L47.075 32.636V32.637ZM45.025 28.557H40.785V24.002H45.052C45.052 24.002 46.252 24.449 46.252 26.265C46.252 28.081 45.032 28.565 45.032 28.565L45.025 28.557ZM65.059 19.14H59.656C55.806 19.14 54.502 22.66 54.502 24.337V38.923H59.905V35.43H64.975V38.923H70.212V24.338C70.212 20.091 66.388 19.141 65.058 19.141L65.059 19.14ZM64.976 29.786H59.878V24.952C59.878 24.952 59.878 23.852 61.578 23.852H63.434C64.93 23.852 64.958 24.952 64.958 24.952V29.786H64.986H64.976ZM72.679 19.14H78.304V38.924H72.679V19.14ZM86.199 33.8V19.14H80.602V38.924H93.762V33.8H86.199ZM95.619 33.856V38.914H104.679C106.535 38.914 109.722 37.544 109.833 33.717V31.77C109.833 28.5 107.173 26.573 104.679 26.573H100.163V24.226H109.113V19.14H100.513C98.296 19.14 95.333 20.984 95.333 24.42V26.18C95.333 29.617 98.27 31.377 100.513 31.377C106.747 31.405 99.017 31.377 104.78 31.377V33.837L95.61 33.865L95.619 33.856ZM1.939 38.886H23.839C23.839 38.886 19.655 19.633 33.509 11.836C36.529 10.356 46.144 4.822 61.882 16.558C62.382 16.138 62.852 15.804 62.852 15.804C62.852 15.804 48.452 1.302 32.409 2.924C24.346 3.651 14.427 11.054 8.609 20.824C2.791 30.594 1.959 38.874 1.959 38.874L1.939 38.886ZM47.546 4.5L47.646 2.628C47.396 2.488 46.704 2.153 44.958 1.65L44.858 3.494C45.7646 3.80018 46.6611 4.13569 47.546 4.5ZM44.914 10.424L44.814 12.184C45.728 12.212 46.644 12.324 47.557 12.519L47.657 10.787C46.715 10.591 45.801 10.48 44.914 10.424ZM34.662 1.706H34.939L34.384 0C33.524 0 32.638 0.0559993 31.724 0.167999L32.25 1.818C33.0508 1.7388 33.8553 1.70142 34.66 1.706H34.662ZM35.992 11.989L36.629 13.917C37.433 13.517 38.236 13.19 39.029 12.939L38.429 11.095C37.5979 11.3402 36.7836 11.6388 35.991 11.989H35.992ZM23.412 4.639L22.165 2.699C21.4335 3.07932 20.7129 3.48015 20.004 3.901L21.279 5.857C21.999 5.41 22.692 4.991 23.413 4.627L23.412 4.639ZM29.092 17.213L30.422 19.225C30.892 18.525 31.447 17.885 32.057 17.241L30.81 15.341C30.1868 15.9166 29.6122 16.5428 29.092 17.213ZM25.075 26.2L27.319 28C27.4309 26.897 27.6255 25.8039 27.901 24.73L25.906 23.137C25.546 24.171 25.306 25.205 25.076 26.211L25.075 26.2ZM12.939 12.938L10.972 11.206C10.252 11.906 9.559 12.603 8.922 13.302L11.056 15.146C11.638 14.392 12.276 13.646 12.94 12.939L12.939 12.938ZM4.571 25.438L1.385 24.264C0.859 25.466 0.277 26.864 0 27.617L3.186 28.791C3.546 27.841 4.128 26.471 4.571 25.438ZM24.659 33.318C24.6971 34.4971 24.8079 35.6726 24.991 36.838L28.316 38.04C28.066 36.94 27.816 35.72 27.651 34.407L24.659 33.307V33.318Z" fill="#CC0000"/>
</svg>
