<svg width="124" height="29" viewBox="0 0 124 29" fill="none" xmlns="http://www.w3.org/2000/svg">
<path d="M37.1082 26.16C36.5162 26.16 35.9082 25.976 35.2842 25.608C34.6762 25.24 34.0522 24.64 33.4122 23.808C32.9162 23.152 32.5562 22.4 32.3322 21.552C32.1242 20.704 32.0202 19.864 32.0202 19.032C32.0202 18.632 32.0442 18.24 32.0922 17.856C32.1562 17.424 32.2762 16.936 32.4522 16.392C32.6282 15.832 32.8122 15.376 33.0042 15.024C33.0682 14.896 33.1562 14.768 33.2682 14.64C33.3962 14.512 33.4762 14.448 33.5082 14.448C33.5242 14.448 33.5322 14.464 33.5322 14.496C33.5322 14.56 33.4522 14.752 33.2922 15.072C33.0522 15.552 32.8762 16.064 32.7642 16.608C32.6522 17.136 32.5962 17.68 32.5962 18.24C32.5962 19.264 32.7562 20.272 33.0762 21.264C33.4122 22.272 33.8522 23.136 34.3962 23.856C34.9082 24.544 35.4042 25.04 35.8842 25.344C36.3802 25.648 36.8442 25.8 37.2762 25.8C37.9162 25.8 38.4842 25.552 38.9802 25.056C39.4922 24.56 39.9162 23.952 40.2522 23.232C40.4922 22.736 40.6922 22.08 40.8522 21.264C41.0122 20.464 41.1322 19.568 41.2122 18.576C41.3082 17.568 41.3562 16.528 41.3562 15.456C41.3562 14.368 41.3082 13.296 41.2122 12.24C41.1162 11.184 40.9562 10.192 40.7322 9.264C40.5242 8.336 40.2602 7.536 39.9402 6.864C39.6202 6.192 39.2282 5.712 38.7642 5.424C38.6362 5.344 38.5162 5.304 38.4042 5.304C38.2762 5.304 38.1482 5.344 38.0202 5.424C37.9082 5.504 37.8042 5.608 37.7082 5.736C37.5002 6.024 37.3482 6.424 37.2522 6.936C37.1562 7.432 37.1082 7.968 37.1082 8.544C37.1082 9.216 37.1642 9.896 37.2762 10.584C37.3882 11.256 37.5402 11.856 37.7322 12.384C37.9402 12.896 38.1722 13.256 38.4282 13.464C38.5722 13.592 38.7082 13.656 38.8362 13.656C38.9482 13.656 39.0362 13.632 39.1002 13.584C39.1642 13.52 39.2282 13.488 39.2922 13.488C39.4042 13.488 39.4202 13.536 39.3402 13.632C39.2602 13.712 39.1402 13.792 38.9802 13.872C38.8202 13.952 38.6442 13.984 38.4522 13.968C38.0202 13.92 37.6602 13.68 37.3722 13.248C37.0842 12.816 36.8682 12.272 36.7242 11.616C36.5802 10.944 36.5082 10.256 36.5082 9.552C36.5082 8.8 36.5802 8.08 36.7242 7.392C36.8842 6.704 37.1162 6.144 37.4202 5.712C37.7402 5.28 38.1242 5.064 38.5722 5.064C38.7962 5.064 39.0122 5.112 39.2202 5.208C39.8282 5.464 40.3242 5.96 40.7082 6.696C41.1082 7.416 41.4122 8.28 41.6202 9.288C41.8442 10.28 41.9962 11.32 42.0762 12.408C42.1722 13.496 42.2202 14.544 42.2202 15.552C42.2202 16.368 42.1962 17.112 42.1482 17.784C42.1162 18.456 42.0762 19 42.0282 19.416C41.9322 20.296 41.7402 21.136 41.4522 21.936C41.1642 22.752 40.8042 23.472 40.3722 24.096C39.9402 24.736 39.4442 25.24 38.8842 25.608C38.3242 25.976 37.7322 26.16 37.1082 26.16ZM42.3398 24.48C42.1798 24.48 42.0518 24.432 41.9558 24.336C41.8438 24.24 41.8278 24.128 41.9078 24C42.1318 23.664 42.3478 23.184 42.5558 22.56C42.7478 21.952 42.9158 21.312 43.0598 20.64C43.2198 19.968 43.3478 19.36 43.4438 18.816C43.5558 18.256 43.6358 17.864 43.6838 17.64C43.3958 17.368 43.2518 17.064 43.2518 16.728C43.2518 16.472 43.3078 16.256 43.4198 16.08C43.5478 15.904 43.6438 15.824 43.7078 15.84C43.7398 15.84 43.7798 15.856 43.8278 15.888C43.8918 15.904 43.9238 15.928 43.9238 15.96C44.0198 15.208 44.0998 14.464 44.1638 13.728C44.2278 12.976 44.2598 12.288 44.2598 11.664C44.2598 11.152 44.2358 10.696 44.1878 10.296C44.1398 9.896 44.0678 9.576 43.9718 9.336C43.8758 9.096 43.8278 8.912 43.8278 8.784C43.8278 8.608 43.8758 8.52 43.9718 8.52C44.0838 8.52 44.1718 8.592 44.2358 8.736C44.4118 9.088 44.5398 9.64 44.6198 10.392C44.7158 11.144 44.7638 12 44.7638 12.96C44.7638 13.616 44.7478 14.312 44.7158 15.048C44.6838 15.768 44.6278 16.488 44.5478 17.208C44.8358 16.952 45.1318 16.704 45.4358 16.464C45.7398 16.208 46.0038 15.944 46.2278 15.672V15.648C46.2278 15.616 46.2118 15.584 46.1798 15.552C46.1638 15.52 46.1558 15.472 46.1558 15.408C46.1558 15.296 46.2358 15.16 46.3958 15C46.5558 14.84 46.7638 14.616 47.0198 14.328C47.2918 14.024 47.5718 13.752 47.8598 13.512C48.1478 13.256 48.4118 13.136 48.6518 13.152C48.8438 13.152 48.9398 13.216 48.9398 13.344C48.9398 13.488 48.8038 13.704 48.5318 13.992C48.2598 14.28 47.9318 14.584 47.5478 14.904C47.1798 15.224 46.8358 15.52 46.5158 15.792C46.2118 16.048 46.0118 16.224 45.9158 16.32L45.0038 17.328L44.5238 17.832C44.7318 18.36 44.9718 18.88 45.2438 19.392C45.5158 19.904 45.8198 20.328 46.1558 20.664C46.5078 21 46.8678 21.168 47.2358 21.168C47.6198 21.168 48.0118 20.936 48.4118 20.472C48.6838 20.136 48.9158 19.76 49.1078 19.344C49.2998 18.928 49.4598 18.616 49.5878 18.408C49.6678 18.248 49.7478 18.144 49.8278 18.096C49.9078 18.032 49.9718 18 50.0198 18C50.1318 18 50.1718 18.08 50.1398 18.24C50.0758 18.448 49.9638 18.712 49.8038 19.032C49.6438 19.352 49.4838 19.656 49.3238 19.944C49.1798 20.216 49.0678 20.408 48.9878 20.52C48.6838 20.968 48.3798 21.296 48.0758 21.504C47.7718 21.712 47.4758 21.816 47.1878 21.816C46.8198 21.816 46.4598 21.68 46.1078 21.408C45.7558 21.136 45.4278 20.784 45.1238 20.352C44.8358 19.92 44.5718 19.464 44.3318 18.984C44.1558 20.2 43.9398 21.288 43.6838 22.248C43.4278 23.224 43.1478 23.896 42.8438 24.264C42.6998 24.408 42.5318 24.48 42.3398 24.48ZM55.9311 22.128C55.5471 22.128 55.2591 21.96 55.0671 21.624C54.8751 21.304 54.7791 20.896 54.7791 20.4C54.7791 20.048 54.8511 19.608 54.9951 19.08C55.1391 18.552 55.3391 18 55.5951 17.424C55.8511 16.848 56.1391 16.312 56.4591 15.816C56.7791 15.304 57.1071 14.896 57.4431 14.592C57.7951 14.272 58.1391 14.112 58.4751 14.112C58.7471 14.112 58.9391 14.216 59.0511 14.424C59.1791 14.616 59.2431 14.824 59.2431 15.048C59.2431 15.24 59.2031 15.416 59.1231 15.576C59.0591 15.72 58.9631 15.792 58.8351 15.792C58.7071 15.792 58.6111 15.736 58.5471 15.624C58.4991 15.496 58.4511 15.368 58.4031 15.24C58.3711 15.112 58.2831 15.048 58.1391 15.048C57.8511 15.048 57.5631 15.232 57.2751 15.6C56.9871 15.968 56.7231 16.432 56.4831 16.992C56.2431 17.552 56.0511 18.136 55.9071 18.744C55.7631 19.336 55.6911 19.864 55.6911 20.328C55.6911 20.664 55.7311 20.928 55.8111 21.12C55.9071 21.328 56.0591 21.432 56.2671 21.432C56.5391 21.432 56.8111 21.264 57.0831 20.928C57.3711 20.576 57.6511 20.128 57.9231 19.584C58.1951 19.024 58.4431 18.44 58.6671 17.832C58.9071 17.224 59.1071 16.656 59.2671 16.128C59.4431 15.584 59.5791 15.152 59.6751 14.832C59.8031 13.712 59.9551 12.584 60.1311 11.448C60.3231 10.312 60.6031 9.208 60.9711 8.136C61.0191 7.96 61.0911 7.808 61.1871 7.68C61.2991 7.552 61.4111 7.488 61.5231 7.488C61.6511 7.488 61.7551 7.576 61.8351 7.752C61.9311 7.928 61.9791 8.128 61.9791 8.352C61.9791 8.528 61.9471 8.712 61.8831 8.904C61.8191 9.096 61.7391 9.352 61.6431 9.672C61.5311 10.056 61.3871 10.568 61.2111 11.208C61.0511 11.832 60.8831 12.544 60.7071 13.344C60.5311 14.128 60.3791 14.968 60.2511 15.864C60.1391 16.744 60.0831 17.624 60.0831 18.504C60.0831 19.176 60.1311 19.648 60.2271 19.92C60.3231 20.192 60.4511 20.328 60.6111 20.328C60.7871 20.328 60.9791 20.216 61.1871 19.992C61.4111 19.768 61.6271 19.496 61.8351 19.176C62.0591 18.856 62.2591 18.536 62.4351 18.216C62.6111 17.88 62.7471 17.616 62.8431 17.424C63.0191 17.072 63.1551 16.896 63.2511 16.896C63.3151 16.896 63.3471 16.968 63.3471 17.112C63.3471 17.224 63.3231 17.344 63.2751 17.472C63.1791 17.68 63.1151 17.84 63.0831 17.952C63.0511 18.048 63.0111 18.144 62.9631 18.24C62.9311 18.336 62.8511 18.488 62.7231 18.696C62.6111 18.888 62.4351 19.152 62.1951 19.488C61.9551 19.808 61.6831 20.104 61.3791 20.376C61.0751 20.632 60.7711 20.76 60.4671 20.76C60.1631 20.76 59.9311 20.632 59.7711 20.376C59.6271 20.12 59.5311 19.792 59.4831 19.392C59.4511 18.976 59.4351 18.552 59.4351 18.12C59.4351 17.592 59.4591 17.032 59.5071 16.44C59.3951 16.824 59.2431 17.28 59.0511 17.808C58.8591 18.32 58.6431 18.84 58.4031 19.368C58.1631 19.896 57.9071 20.376 57.6351 20.808C57.4111 21.16 57.1631 21.464 56.8911 21.72C56.6191 21.992 56.2991 22.128 55.9311 22.128ZM64.4704 21.312C63.8944 21.312 63.3904 20.976 62.9584 20.304C62.5424 19.616 62.3344 18.536 62.3344 17.064C62.3344 16.104 62.4544 15.336 62.6944 14.76C62.9344 14.168 63.2304 13.736 63.5824 13.464C63.9344 13.192 64.2704 13.056 64.5904 13.056C64.9104 13.056 65.1824 13.168 65.4064 13.392C65.6304 13.6 65.7424 13.904 65.7424 14.304C65.7424 14.688 65.6304 15.096 65.4064 15.528C65.1824 15.944 64.9104 16.328 64.5904 16.68C64.2864 17.016 63.9824 17.24 63.6784 17.352C63.6144 17.384 63.5344 17.4 63.4384 17.4C63.3744 17.4 63.3424 17.376 63.3424 17.328C63.3424 17.2 63.4704 17.056 63.7264 16.896C64.0464 16.672 64.3504 16.336 64.6384 15.888C64.9264 15.424 65.0704 15.016 65.0704 14.664C65.0704 14.456 65.0224 14.296 64.9264 14.184C64.8304 14.056 64.7184 13.992 64.5904 13.992C64.3504 13.992 64.0864 14.184 63.7984 14.568C63.5264 14.936 63.3264 15.576 63.1984 16.488C63.1664 16.744 63.1344 16.992 63.1024 17.232C63.0864 17.456 63.0784 17.68 63.0784 17.904C63.0784 18.8 63.2144 19.504 63.4864 20.016C63.7584 20.512 64.1184 20.76 64.5664 20.76C64.9504 20.76 65.3824 20.536 65.8624 20.088C66.3424 19.624 66.8144 18.904 67.2784 17.928C67.3904 17.672 67.5184 17.544 67.6624 17.544C67.7584 17.544 67.8064 17.608 67.8064 17.736C67.8064 17.848 67.7744 17.968 67.7104 18.096C67.2944 19.12 66.7904 19.912 66.1984 20.472C65.6064 21.032 65.0304 21.312 64.4704 21.312ZM69.1803 22.608C69.0843 22.608 68.9883 22.552 68.8923 22.44C68.8123 22.328 68.7563 22.152 68.7243 21.912C68.7083 21.848 68.7003 21.752 68.7003 21.624C68.7003 21.512 68.7003 21.376 68.7003 21.216C68.7003 20.896 68.7003 20.576 68.7003 20.256C68.7163 19.92 68.7243 19.696 68.7243 19.584C68.7243 18.912 68.6923 18.232 68.6283 17.544C68.5643 16.856 68.4363 16.28 68.2443 15.816C68.0523 15.352 67.7483 15.12 67.3323 15.12C67.0763 15.12 66.8363 15.216 66.6123 15.408C66.4043 15.584 66.2283 15.768 66.0843 15.96C65.9243 16.152 65.8123 16.248 65.7483 16.248C65.6843 16.248 65.6523 16.216 65.6523 16.152C65.6523 16.072 65.7243 15.944 65.8683 15.768C66.0123 15.576 66.1163 15.448 66.1803 15.384C66.4203 15.144 66.6843 14.928 66.9723 14.736C67.2763 14.544 67.5563 14.448 67.8123 14.448C68.2123 14.448 68.5243 14.672 68.7483 15.12C68.9723 15.552 69.1323 16.104 69.2283 16.776C69.3243 17.432 69.3723 18.096 69.3723 18.768C69.3723 19.104 69.3643 19.432 69.3483 19.752C69.3323 20.056 69.3083 20.336 69.2763 20.592C69.4203 20.192 69.6043 19.72 69.8283 19.176C70.0523 18.616 70.3083 18.048 70.5963 17.472C70.9003 16.88 71.2203 16.328 71.5563 15.816C71.8923 15.304 72.2523 14.88 72.6363 14.544C72.8603 14.352 73.0283 14.256 73.1403 14.256C73.2363 14.256 73.2843 14.304 73.2843 14.4C73.2843 14.56 73.1483 14.76 72.8763 15C72.3163 15.496 71.8443 16.064 71.4603 16.704C71.0763 17.344 70.7643 18 70.5243 18.672C70.3003 19.344 70.1323 19.976 70.0203 20.568C69.9083 21.16 69.8363 21.648 69.8043 22.032C69.7883 22.144 69.7163 22.264 69.5883 22.392C69.4603 22.536 69.3243 22.608 69.1803 22.608ZM74.6423 21.312C74.0663 21.312 73.5623 20.976 73.1303 20.304C72.7143 19.616 72.5063 18.536 72.5063 17.064C72.5063 16.104 72.6263 15.336 72.8663 14.76C73.1063 14.168 73.4023 13.736 73.7543 13.464C74.1063 13.192 74.4423 13.056 74.7623 13.056C75.0823 13.056 75.3543 13.168 75.5783 13.392C75.8023 13.6 75.9143 13.904 75.9143 14.304C75.9143 14.688 75.8023 15.096 75.5783 15.528C75.3543 15.944 75.0823 16.328 74.7623 16.68C74.4583 17.016 74.1543 17.24 73.8503 17.352C73.7863 17.384 73.7063 17.4 73.6103 17.4C73.5463 17.4 73.5143 17.376 73.5143 17.328C73.5143 17.2 73.6423 17.056 73.8983 16.896C74.2183 16.672 74.5223 16.336 74.8103 15.888C75.0983 15.424 75.2423 15.016 75.2423 14.664C75.2423 14.456 75.1943 14.296 75.0983 14.184C75.0023 14.056 74.8903 13.992 74.7623 13.992C74.5223 13.992 74.2583 14.184 73.9703 14.568C73.6983 14.936 73.4983 15.576 73.3703 16.488C73.3383 16.744 73.3063 16.992 73.2743 17.232C73.2583 17.456 73.2503 17.68 73.2503 17.904C73.2503 18.8 73.3863 19.504 73.6583 20.016C73.9303 20.512 74.2903 20.76 74.7383 20.76C75.1223 20.76 75.5543 20.536 76.0343 20.088C76.5143 19.624 76.9863 18.904 77.4503 17.928C77.5623 17.672 77.6903 17.544 77.8343 17.544C77.9303 17.544 77.9783 17.608 77.9783 17.736C77.9783 17.848 77.9463 17.968 77.8823 18.096C77.4663 19.12 76.9623 19.912 76.3703 20.472C75.7783 21.032 75.2023 21.312 74.6423 21.312ZM80.9361 24.816C80.7281 24.816 80.5281 24.736 80.3361 24.576C80.1601 24.416 80.0081 24.256 79.8801 24.096C79.3681 23.504 78.9361 22.72 78.5841 21.744C78.2481 20.768 77.9921 19.696 77.8161 18.528C77.6401 17.344 77.5521 16.144 77.5521 14.928C77.5521 13.792 77.6241 12.688 77.7681 11.616C77.9281 10.544 78.1681 9.568 78.4881 8.688C78.8081 7.808 79.2081 7.104 79.6881 6.576C80.3121 5.872 80.9121 5.52 81.4881 5.52C81.8401 5.52 82.1201 5.68 82.3281 6C82.5521 6.304 82.6641 6.792 82.6641 7.464C82.6641 8.104 82.5361 8.92 82.2801 9.912C82.0401 10.888 81.6241 12.056 81.0321 13.416C80.8241 13.864 80.6001 14.312 80.3601 14.76C80.1361 15.208 79.8961 15.68 79.6401 16.176C79.5441 16.368 79.4641 16.464 79.4001 16.464C79.3681 16.464 79.3521 16.432 79.3521 16.368C79.3521 16.24 79.4081 16.072 79.5201 15.864C80.9761 13.128 81.7041 10.408 81.7041 7.704C81.7041 6.632 81.4801 6.096 81.0321 6.096C80.7121 6.096 80.3361 6.408 79.9041 7.032C79.3121 7.912 78.9041 8.96 78.6801 10.176C78.4561 11.376 78.3441 12.592 78.3441 13.824C78.3441 14.752 78.3841 15.656 78.4641 16.536C78.5441 17.4 78.6401 18.184 78.7521 18.888C78.8001 19.192 78.8721 19.6 78.9681 20.112C79.0641 20.624 79.1921 21.16 79.3521 21.72C79.5121 22.296 79.6881 22.816 79.8801 23.28C80.0881 23.76 80.3121 24.104 80.5521 24.312C80.6161 24.36 80.6801 24.408 80.7441 24.456C80.8241 24.52 80.9121 24.56 81.0081 24.576C81.1521 24.576 81.2241 24.616 81.2241 24.696C81.2241 24.776 81.1281 24.816 80.9361 24.816ZM83.6714 21.84C83.1434 21.84 82.7114 21.68 82.3754 21.36C82.0554 21.04 81.8154 20.632 81.6554 20.136C81.4954 19.624 81.4154 19.088 81.4154 18.528C81.4154 18.192 81.4474 17.872 81.5114 17.568C81.5754 17.264 81.6394 17.016 81.7034 16.824C81.6874 16.712 81.6714 16.6 81.6554 16.488C81.6554 16.36 81.6554 16.232 81.6554 16.104C81.6554 15.64 81.7034 15.136 81.7994 14.592C81.8954 14.048 82.0474 13.528 82.2554 13.032C82.4794 12.536 82.7514 12.136 83.0714 11.832C83.4074 11.512 83.8154 11.352 84.2954 11.352C84.7114 11.352 85.1194 11.528 85.5194 11.88C85.9194 12.216 86.2714 12.712 86.5754 13.368C86.7514 13.736 86.8714 14.136 86.9354 14.568C87.0154 14.984 87.0554 15.408 87.0554 15.84C87.0554 16.432 86.9914 17.024 86.8634 17.616C86.7514 18.192 86.5834 18.736 86.3594 19.248C86.1994 19.616 85.9834 20.008 85.7114 20.424C85.4554 20.824 85.1594 21.16 84.8234 21.432C84.4874 21.704 84.1034 21.84 83.6714 21.84ZM83.7914 21.312C84.3354 21.312 84.8394 20.936 85.3034 20.184C85.6394 19.656 85.8794 19.056 86.0234 18.384C86.1674 17.696 86.2394 17.008 86.2394 16.32C86.2394 15.808 86.2074 15.312 86.1434 14.832C86.0794 14.352 85.9834 13.888 85.8554 13.44C85.7434 13.04 85.5514 12.688 85.2794 12.384C85.0234 12.064 84.6554 11.928 84.1754 11.976C83.7914 12.008 83.4554 12.2 83.1674 12.552C82.8794 12.904 82.6554 13.304 82.4954 13.752C82.3514 14.184 82.2794 14.56 82.2794 14.88C82.2794 15.056 82.3034 15.192 82.3514 15.288C82.3994 15.16 82.5194 14.952 82.7114 14.664C82.9034 14.36 83.1194 14.088 83.3594 13.848C83.5994 13.592 83.8234 13.464 84.0314 13.464C84.2074 13.464 84.2954 13.536 84.2954 13.68C84.0874 13.696 83.8794 13.824 83.6714 14.064C83.4794 14.288 83.2954 14.56 83.1194 14.88C82.9594 15.2 82.8234 15.52 82.7114 15.84C82.6154 16.144 82.5434 16.384 82.4954 16.56C82.4794 16.624 82.4554 16.704 82.4234 16.8C82.3914 16.896 82.3754 16.992 82.3754 17.088C82.3754 17.2 82.4394 17.384 82.5674 17.64C82.6954 17.88 82.9034 18.104 83.1914 18.312C83.4794 18.52 83.8714 18.624 84.3674 18.624C84.5114 18.624 84.6634 18.608 84.8234 18.576C84.9834 18.544 85.1354 18.512 85.2794 18.48L85.4474 18.432C85.4794 18.432 85.4954 18.448 85.4954 18.48C85.4954 18.528 85.4394 18.592 85.3274 18.672C85.2314 18.736 85.1434 18.784 85.0634 18.816C84.8394 18.928 84.5914 18.984 84.3194 18.984C83.9194 18.984 83.5354 18.864 83.1674 18.624C82.8154 18.368 82.5034 18.08 82.2314 17.76C82.2154 17.888 82.2074 18.016 82.2074 18.144C82.2074 18.256 82.2074 18.368 82.2074 18.48C82.2074 19.408 82.3674 20.112 82.6874 20.592C83.0074 21.072 83.3754 21.312 83.7914 21.312ZM87.8824 28.824C87.6424 28.824 87.4504 28.664 87.3064 28.344C87.1624 28.04 87.0584 27.672 86.9944 27.24C86.9144 26.808 86.8744 26.408 86.8744 26.04C86.8744 25.864 86.8824 25.608 86.8984 25.272C86.9144 24.936 86.9384 24.576 86.9704 24.192C87.0024 23.808 87.0344 23.448 87.0664 23.112C87.0984 22.776 87.1224 22.52 87.1384 22.344C87.2824 21.256 87.4984 20.208 87.7864 19.2C88.0744 18.176 88.3864 17.176 88.7224 16.2C88.7384 16.168 88.7544 16.12 88.7704 16.056C88.8024 15.992 88.8264 15.96 88.8424 15.96V15.888C88.6824 15.952 88.4744 16.104 88.2184 16.344C87.9784 16.584 87.8024 16.768 87.6904 16.896C87.5784 17.008 87.4744 17.128 87.3784 17.256C87.2824 17.368 87.1704 17.424 87.0424 17.424C86.9144 17.424 86.8504 17.352 86.8504 17.208C86.8504 17.032 86.9464 16.856 87.1384 16.68C87.3144 16.488 87.5144 16.312 87.7384 16.152C87.9624 15.976 88.2024 15.816 88.4584 15.672C88.7304 15.528 88.9224 15.424 89.0344 15.36C89.0824 15.328 89.1144 15.288 89.1304 15.24C89.1624 15.192 89.1864 15.144 89.2024 15.096C89.3144 14.92 89.4264 14.752 89.5384 14.592C89.6664 14.432 89.8344 14.32 90.0424 14.256C90.1864 14.272 90.3464 14.304 90.5224 14.352C90.6984 14.4 90.8024 14.512 90.8344 14.688C90.8344 14.752 90.8504 14.784 90.8824 14.784V14.808C90.9624 14.808 91.0584 14.8 91.1704 14.784C91.2984 14.752 91.4424 14.736 91.6024 14.736C92.2264 14.736 92.7304 14.896 93.1144 15.216C93.4984 15.536 93.6904 15.96 93.6904 16.488C93.6904 16.984 93.5464 17.52 93.2584 18.096C92.9704 18.656 92.6584 19.112 92.3224 19.464C91.7944 19.992 91.2344 20.456 90.6424 20.856C90.0664 21.24 89.5704 21.432 89.1544 21.432C88.8984 21.432 88.7224 21.36 88.6264 21.216C88.5464 21.088 88.5064 20.928 88.5064 20.736C88.5064 20.464 88.6264 20.192 88.8664 19.92C89.1064 19.648 89.3464 19.416 89.5864 19.224C89.8584 19 90.1384 18.792 90.4264 18.6C90.7304 18.408 90.9864 18.248 91.1944 18.12C91.3064 18.04 91.4104 17.968 91.5064 17.904C91.6184 17.84 91.7144 17.808 91.7944 17.808C91.8424 17.808 91.8664 17.832 91.8664 17.88C91.8664 17.912 91.7704 17.992 91.5784 18.12C91.4024 18.248 91.2504 18.36 91.1224 18.456C91.0264 18.536 90.8584 18.68 90.6184 18.888C90.3784 19.08 90.1224 19.304 89.8504 19.56C89.5944 19.8 89.3704 20.048 89.1784 20.304C88.9864 20.56 88.8904 20.784 88.8904 20.976C89.1464 20.976 89.4264 20.872 89.7304 20.664C90.0504 20.44 90.3624 20.184 90.6664 19.896C90.9864 19.608 91.2584 19.368 91.4824 19.176C91.6904 18.984 91.9384 18.72 92.2264 18.384C92.5144 18.048 92.7704 17.688 92.9944 17.304C93.2184 16.92 93.3304 16.568 93.3304 16.248C93.3304 15.832 93.1704 15.528 92.8504 15.336C92.5464 15.128 92.1784 15.024 91.7464 15.024C91.6024 15.024 91.4184 15.04 91.1944 15.072C90.9704 15.104 90.8344 15.136 90.7864 15.168C90.4344 15.712 90.0984 16.264 89.7784 16.824C89.4584 17.384 89.1624 17.96 88.8904 18.552C88.4424 19.512 88.0824 20.488 87.8104 21.48C87.5544 22.472 87.3864 23.544 87.3064 24.696C87.2904 24.968 87.2664 25.256 87.2344 25.56C87.2184 25.864 87.2184 26.168 87.2344 26.472C87.2504 26.632 87.2824 26.888 87.3304 27.24C87.3784 27.592 87.4584 27.912 87.5704 28.2C87.6824 28.488 87.8344 28.632 88.0264 28.632C88.0424 28.632 88.0744 28.632 88.1224 28.632C88.1704 28.632 88.1944 28.64 88.1944 28.656V28.728C88.0824 28.792 87.9784 28.824 87.8824 28.824ZM96.0173 21.312C95.4413 21.312 94.9373 20.976 94.5053 20.304C94.0893 19.616 93.8813 18.536 93.8813 17.064C93.8813 16.104 94.0013 15.336 94.2413 14.76C94.4813 14.168 94.7773 13.736 95.1293 13.464C95.4813 13.192 95.8173 13.056 96.1373 13.056C96.4573 13.056 96.7293 13.168 96.9533 13.392C97.1773 13.6 97.2893 13.904 97.2893 14.304C97.2893 14.688 97.1773 15.096 96.9533 15.528C96.7293 15.944 96.4573 16.328 96.1373 16.68C95.8333 17.016 95.5293 17.24 95.2253 17.352C95.1613 17.384 95.0813 17.4 94.9853 17.4C94.9213 17.4 94.8893 17.376 94.8893 17.328C94.8893 17.2 95.0173 17.056 95.2733 16.896C95.5933 16.672 95.8973 16.336 96.1853 15.888C96.4733 15.424 96.6173 15.016 96.6173 14.664C96.6173 14.456 96.5693 14.296 96.4733 14.184C96.3773 14.056 96.2653 13.992 96.1373 13.992C95.8973 13.992 95.6333 14.184 95.3453 14.568C95.0733 14.936 94.8733 15.576 94.7453 16.488C94.7133 16.744 94.6813 16.992 94.6493 17.232C94.6333 17.456 94.6253 17.68 94.6253 17.904C94.6253 18.8 94.7613 19.504 95.0333 20.016C95.3053 20.512 95.6653 20.76 96.1133 20.76C96.4973 20.76 96.9293 20.536 97.4093 20.088C97.8893 19.624 98.3613 18.904 98.8253 17.928C98.9373 17.672 99.0653 17.544 99.2093 17.544C99.3053 17.544 99.3533 17.608 99.3533 17.736C99.3533 17.848 99.3213 17.968 99.2573 18.096C98.8413 19.12 98.3373 19.912 97.7453 20.472C97.1533 21.032 96.5773 21.312 96.0173 21.312ZM101.831 22.2C101.319 22.2 100.927 21.96 100.655 21.48C100.383 21.016 100.247 20.504 100.247 19.944C100.247 19.416 100.335 18.864 100.511 18.288C100.687 17.712 100.903 17.144 101.159 16.584C101.431 16.024 101.711 15.512 101.999 15.048C101.711 15.16 101.439 15.216 101.183 15.216C101.055 15.216 100.943 15.2 100.847 15.168C100.751 15.136 100.671 15.112 100.607 15.096C100.527 15.288 100.383 15.608 100.175 16.056C99.9831 16.504 99.7751 16.976 99.5511 17.472C99.3431 17.952 99.1591 18.36 98.9991 18.696C98.7431 19.24 98.5191 19.512 98.3271 19.512C98.2311 19.512 98.1831 19.448 98.1831 19.32C98.1831 19.224 98.2231 19.096 98.3031 18.936C98.6711 18.248 99.0151 17.568 99.3351 16.896C99.6711 16.224 99.9751 15.576 100.247 14.952C100.215 14.872 100.183 14.768 100.151 14.64C100.119 14.496 100.103 14.344 100.103 14.184C100.103 14.008 100.119 13.824 100.151 13.632C100.199 13.424 100.263 13.224 100.343 13.032C100.391 12.92 100.479 12.76 100.607 12.552C100.735 12.328 100.879 12.128 101.039 11.952C101.199 11.76 101.351 11.664 101.495 11.664C101.767 11.664 101.903 11.808 101.903 12.096C101.903 12.368 101.815 12.68 101.639 13.032C101.479 13.384 101.311 13.712 101.135 14.016C100.959 14.304 100.871 14.52 100.871 14.664C100.871 14.792 100.935 14.856 101.063 14.856C101.239 14.856 101.455 14.768 101.711 14.592C101.983 14.4 102.199 14.224 102.359 14.064C102.439 13.984 102.567 13.864 102.743 13.704C102.919 13.528 103.087 13.44 103.247 13.44C103.407 13.44 103.511 13.488 103.559 13.584C103.623 13.68 103.655 13.792 103.655 13.92C103.655 14.064 103.591 14.248 103.463 14.472C103.335 14.68 103.183 14.888 103.007 15.096C102.847 15.304 102.711 15.48 102.599 15.624C102.375 15.96 102.119 16.384 101.831 16.896C101.543 17.408 101.295 17.96 101.087 18.552C100.879 19.128 100.775 19.68 100.775 20.208C100.775 20.56 100.863 20.928 101.039 21.312C101.215 21.696 101.455 21.888 101.759 21.888C102.031 21.888 102.319 21.744 102.623 21.456C102.943 21.168 103.239 20.824 103.511 20.424C103.799 20.024 104.047 19.64 104.255 19.272C104.479 18.904 104.631 18.648 104.711 18.504C104.743 18.424 104.799 18.328 104.879 18.216C104.959 18.088 105.055 18.024 105.167 18.024C105.263 18.024 105.311 18.072 105.311 18.168C105.311 18.248 105.287 18.344 105.239 18.456C105.207 18.552 105.175 18.64 105.143 18.72C104.999 19.056 104.823 19.408 104.615 19.776C104.407 20.144 104.263 20.392 104.183 20.52C103.959 20.888 103.623 21.256 103.175 21.624C102.743 22.008 102.295 22.2 101.831 22.2ZM106.915 22.032C106.707 22.032 106.555 21.96 106.459 21.816C106.379 21.688 106.339 21.56 106.339 21.432C106.339 21.176 106.451 20.912 106.675 20.64C106.755 20.544 106.867 20.416 107.011 20.256C107.155 20.08 107.259 19.944 107.323 19.848C107.115 19.56 106.835 19.296 106.483 19.056C106.131 18.816 105.787 18.512 105.451 18.144C105.147 17.808 104.891 17.4 104.683 16.92C104.475 16.424 104.371 15.952 104.371 15.504C104.371 14.976 104.491 14.472 104.731 13.992C104.971 13.512 105.267 13.096 105.619 12.744C106.003 12.36 106.427 12.056 106.891 11.832C107.355 11.592 107.835 11.472 108.331 11.472C108.667 11.472 108.995 11.552 109.315 11.712C109.635 11.872 109.795 12.136 109.795 12.504C109.795 12.936 109.699 13.152 109.507 13.152C109.427 13.152 109.371 13.072 109.339 12.912C109.323 12.832 109.315 12.752 109.315 12.672C109.315 12.576 109.315 12.512 109.315 12.48C109.315 12.32 109.243 12.184 109.099 12.072C108.955 11.944 108.795 11.88 108.619 11.88C108.251 11.88 107.843 12.024 107.395 12.312C106.947 12.6 106.571 12.936 106.267 13.32C105.963 13.72 105.715 14.176 105.523 14.688C105.331 15.184 105.235 15.664 105.235 16.128C105.235 16.704 105.363 17.2 105.619 17.616C105.875 18.032 106.179 18.4 106.531 18.72C106.899 19.04 107.227 19.352 107.515 19.656C107.659 19.48 107.811 19.312 107.971 19.152C108.147 18.992 108.307 18.864 108.451 18.768C108.579 18.688 108.667 18.648 108.715 18.648C108.763 18.648 108.787 18.672 108.787 18.72C108.787 18.8 108.715 18.896 108.571 19.008C108.539 19.04 108.443 19.136 108.283 19.296C108.139 19.44 107.963 19.624 107.755 19.848C107.883 19.992 107.987 20.144 108.067 20.304C108.147 20.464 108.187 20.64 108.187 20.832C108.187 21.088 108.043 21.352 107.755 21.624C107.467 21.896 107.187 22.032 106.915 22.032ZM107.179 21.384C107.291 21.384 107.395 21.28 107.491 21.072C107.603 20.88 107.659 20.688 107.659 20.496C107.659 20.4 107.643 20.312 107.611 20.232C107.579 20.152 107.555 20.104 107.539 20.088C107.411 20.248 107.291 20.424 107.179 20.616C107.083 20.792 107.035 20.952 107.035 21.096C107.035 21.288 107.083 21.384 107.179 21.384Z" fill="black"/>
<path d="M8.89672 24.6621C6.35365 27.2364 2.04667 27.2261 0.843849 23.7952C0.608353 23.1234 0.420066 22.4328 0.281581 21.728C-0.28385 18.8504 0.00634938 15.8678 1.11548 13.1572C2.22462 10.4467 4.10287 8.12997 6.51272 6.49998C8.9226 4.87 11.7558 4 14.6541 4C17.5524 4 20.3857 4.87 22.7955 6.49998C25.2054 8.12997 27.0836 10.4467 28.1927 13.1573C29.3019 15.8678 29.592 18.8504 29.0266 21.728C28.8882 22.4328 28.6999 23.1234 28.4643 23.7952C27.2615 27.2261 22.9545 27.2364 20.4115 24.6621L16.4859 20.6883C16.1108 20.3086 16.1496 19.6825 16.253 19.1559C16.3159 18.8359 16.2836 18.5041 16.1602 18.2025C16.0368 17.9009 15.8279 17.6432 15.5598 17.4619C15.2917 17.2806 14.9766 17.1838 14.6541 17.1838C14.3317 17.1838 14.0165 17.2806 13.7484 17.4619C13.4803 17.6432 13.2714 17.9009 13.148 18.2025C13.0246 18.5041 12.9923 18.8359 13.0552 19.1559C13.1587 19.6825 13.1974 20.3086 12.8223 20.6883L8.89672 24.6621Z" fill="url(#paint0_linear_144_13)"/>
<defs>
<linearGradient id="paint0_linear_144_13" x1="27.9743" y1="11.417" x2="1.96328" y2="11.417" gradientUnits="userSpaceOnUse">
<stop stop-color="#161490"/>
<stop offset="0.510417" stop-color="#7476ED"/>
<stop offset="1" stop-color="#E56F8C"/>
</linearGradient>
</defs>
</svg>
